# xmcd
#
# Track frame offsets:
# 150
# 8137
# 23454
# 47145
# 63906
# 78740
# 96627
# 113084
# 129541
# 159432
# 183760
# 197302
# 213389
#
# Disc length: 3359 seconds
#
#
# Revision: 0
# Processed by: cddbd v1.5PL3 Copyright (c) Steve Scherf et al.
# Submitted via: FreeRIP 2.51 
#
DISCID=a20d1d0d
DTITLE=Various Artist - Various
DYEAR=1900
DGENRE=varied
TTITLE0=BB King- Woke Up This Morning
TTITLE1=Blind Boys Of Alabama - People Get Ready
TTITLE2=Blind Boys Of Alabama - Amazing Grace
TTITLE3=Blind Boys Of Alabama - Pray On Christmas
TTITLE4=Blind Boys Of Alabama - Spirit In The Dark
TTITLE5=Blind Boys Of Alabama - Many Rivers To Cross
TTITLE6=Blind Boys Of Alabama - Freedom Road
TTITLE7=Blind Boys Of Alabama - I May Not Can See
TTITLE8=Blind Boys Of Alabama - Born In Bethelehem
TTITLE9=Blind Boys Of Alabama - Away In A Manger
TTITLE10=KJ 52 - Rock On
TTITLE11=Pillar - Stay Up
TTITLE12=Robert Randolph - Peekaboo
EXTD=
EXTT0=
EXTT1=
EXTT2=
EXTT3=
EXTT4=
EXTT5=
EXTT6=
EXTT7=
EXTT8=
EXTT9=
EXTT10=
EXTT11=
EXTT12=
PLAYORDER=
